<svg xmlns="http://www.w3.org/2000/svg" xmlns:xlink="http://www.w3.org/1999/xlink" width="2000" zoomAndPan="magnify" viewBox="0 0 1500 1499.999933" height="2000" preserveAspectRatio="xMidYMid meet" version="1.0"><defs><clipPath id="1d2dc9bc29"><path d="M 150 371.722656 L 1350 371.722656 L 1350 1128.273438 L 150 1128.273438 Z M 150 371.722656 " clip-rule="nonzero"/></clipPath><clipPath id="d7a8dbfc6a"><path d="M 637.5 637.5 L 862.5 637.5 L 862.5 862.5 L 637.5 862.5 Z M 637.5 637.5 " clip-rule="nonzero"/></clipPath><clipPath id="0c07b1b3ea"><path d="M 750 637.5 C 687.867188 637.5 637.5 687.867188 637.5 750 C 637.5 812.132812 687.867188 862.5 750 862.5 C 812.132812 862.5 862.5 812.132812 862.5 750 C 862.5 687.867188 812.132812 637.5 750 637.5 Z M 750 637.5 " clip-rule="nonzero"/></clipPath><clipPath id="49fb547b42"><path d="M 0.5 0.5 L 225.5 0.5 L 225.5 225.5 L 0.5 225.5 Z M 0.5 0.5 " clip-rule="nonzero"/></clipPath><clipPath id="64075cde75"><path d="M 113 0.5 C 50.867188 0.5 0.5 50.867188 0.5 113 C 0.5 175.132812 50.867188 225.5 113 225.5 C 175.132812 225.5 225.5 175.132812 225.5 113 C 225.5 50.867188 175.132812 0.5 113 0.5 Z M 113 0.5 " clip-rule="nonzero"/></clipPath><clipPath id="ed524d3c71"><rect x="0" width="226" y="0" height="226"/></clipPath></defs><rect x="-150" width="1800" fill="#ffffff" y="-149.999993" height="1799.99992" fill-opacity="1"/><rect x="-150" width="1800" fill="#d9d9d9" y="-149.999993" height="1799.99992" fill-opacity="1"/><g clip-path="url(#1d2dc9bc29)"><path stroke-linecap="butt" transform="matrix(0.75, 0, 0, 0.75, 150.00002, 371.723826)" fill="none" stroke-linejoin="miter" d="M -0.00002724 -0.00155911 L 1600.000213 -0.00155911 L 1600.000213 1008.732967 L -0.00002724 1008.732967 Z M -0.00002724 -0.00155911 " stroke="#000000" stroke-width="200" stroke-opacity="1" stroke-miterlimit="4"/></g><g clip-path="url(#d7a8dbfc6a)"><g clip-path="url(#0c07b1b3ea)"><g transform="matrix(1, 0, 0, 1, 637, 637)"><g clip-path="url(#ed524d3c71)"><g clip-path="url(#49fb547b42)"><g clip-path="url(#64075cde75)"><path fill="#000000" d="M 0.5 0.5 L 225.5 0.5 L 225.5 225.5 L 0.5 225.5 Z M 0.5 0.5 " fill-opacity="1" fill-rule="nonzero"/></g></g></g></g></g></g></svg>