<svg xmlns="http://www.w3.org/2000/svg" xmlns:xlink="http://www.w3.org/1999/xlink" width="2000" zoomAndPan="magnify" viewBox="0 0 1500 1499.999933" height="2000" preserveAspectRatio="xMidYMid meet" version="1.0"><defs><clipPath id="ca6af8d6d6"><path d="M 337.5 337.5 L 1162.5 337.5 L 1162.5 1162.5 L 337.5 1162.5 Z M 337.5 337.5 " clip-rule="nonzero"/></clipPath><clipPath id="743fd991d9"><path d="M 750 337.5 L 881.257812 618.742188 L 1162.5 750 L 881.257812 881.257812 L 750 1162.5 L 618.742188 881.257812 L 337.5 750 L 618.742188 618.742188 Z M 750 337.5 " clip-rule="nonzero"/></clipPath><clipPath id="20ddf469eb"><path d="M 0.5 0.5 L 825.5 0.5 L 825.5 825.5 L 0.5 825.5 Z M 0.5 0.5 " clip-rule="nonzero"/></clipPath><clipPath id="26690b6eb3"><path d="M 413 0.5 L 544.257812 281.742188 L 825.5 413 L 544.257812 544.257812 L 413 825.5 L 281.742188 544.257812 L 0.5 413 L 281.742188 281.742188 Z M 413 0.5 " clip-rule="nonzero"/></clipPath><clipPath id="88c90a6afa"><rect x="0" width="826" y="0" height="826"/></clipPath></defs><rect x="-150" width="1800" fill="#ffffff" y="-149.999993" height="1799.99992" fill-opacity="1"/><rect x="-150" width="1800" fill="#afafaf" y="-149.999993" height="1799.99992" fill-opacity="1"/><g clip-path="url(#ca6af8d6d6)"><g clip-path="url(#743fd991d9)"><g transform="matrix(1, 0, 0, 1, 337, 337)"><g clip-path="url(#88c90a6afa)"><g clip-path="url(#20ddf469eb)"><g clip-path="url(#26690b6eb3)"><path fill="#0d0d0e" d="M 0.5 0.5 L 825.5 0.5 L 825.5 825.5 L 0.5 825.5 Z M 0.5 0.5 " fill-opacity="1" fill-rule="nonzero"/></g></g></g></g></g></g></svg>